Coordinates
version=1
nRows=24
nColumns=24
inDegrees=yes

Units are S.I. units (second, meters, Newtons, ...)
If the header above contains a line with 'inDegrees', this indicates whether rotational values are in degrees (yes) or radians (no).

endheader
time	pelvis_tilt	pelvis_list	pelvis_rotation	pelvis_tx	pelvis_ty	pelvis_tz	hip_flexion_r	hip_adduction_r	hip_rotation_r	knee_angle_r	ankle_angle_r	subtalar_angle_r	mtp_angle_r	hip_flexion_l	hip_adduction_l	hip_rotation_l	knee_angle_l	ankle_angle_l	subtalar_angle_l	mtp_angle_l	lumbar_extension	lumbar_bending	lumbar_rotation
      2.10004200	     26.32960584	      7.58606632	    -79.61415747	      0.09782967	      0.91019875	      2.02324462	     22.03259145	    -24.41863248	     -5.44100096	      7.03555242	     -6.36531206	      4.65058179	      6.22961486	    -20.31667775	     25.08362893	     21.29595736	    -14.55776217	     15.20973284	      9.04522763	      3.84881057	     -4.12205874	    -28.43559959	     16.84284560
      2.11670900	     27.20279377	      6.14131956	    -81.59025187	      0.09376804	      0.91258398	      2.05231363	     21.04062606	    -24.13576143	     -4.59796295	      4.94146761	     -4.51278218	      5.08738851	      2.02662018	    -19.84460941	     26.43454550	     18.61994616	    -19.79801616	     15.33366600	      9.89880456	      1.99089153	     -4.47471005	    -29.36618814	     18.20432599
      2.13337600	     28.04151882	      4.31411213	    -83.83074174	      0.08854693	      0.91610966	      2.08177797	     19.49310214	    -23.90803706	     -3.54216039	      3.07911568	     -2.13398357	      5.89948913	     -3.46441207	    -18.69769353	     27.89320240	     14.86788596	    -26.35159394	     15.28930960	     10.98382722	     -0.24613652	     -4.94605468	    -30.35472034	     19.88024138
      2.15004300	     28.48199913	      2.61124573	    -85.82200023	      0.08363501	      0.91999373	      2.11031770	     17.72025869	    -23.54437837	     -2.15172755	      1.55302641	      0.41680630	      6.11510476	     -8.36782741	    -16.26586468	     28.91358539	     10.12167737	    -33.99754258	     16.41580503	     11.84368954	     -5.04181254	     -5.37119670	    -31.00860074	     21.38726580
      2.16671000	     28.03871649	      0.87005945	    -87.22641488	      0.08003581	      0.92435059	      2.13698100	     15.36361577	    -22.54570399	     -0.69878157	      0.35838046	      3.70780829	      5.37456421	    -13.53407141	    -12.92154155	     28.72772832	      4.63443544	    -42.27446619	     23.15396131	     10.17891423	    -24.48625014	     -6.17196454	    -30.73023188	     21.82420178
      2.18337700	     20.58865787	     -4.29506339	    -85.86569842	      0.07768562	      0.93206801	      2.16027141	      7.96659900	    -15.02327318	      2.18266878	     -0.83466800	      3.84018491	      0.69973897	     -9.73295289	    -16.65329112	     20.02768282	     -0.15487382	    -36.30072550	     43.57460268	    -25.30048208	   -124.65372983	    -11.24582417	    -22.56068671	     16.25445509
      2.20004400	     20.40247626	     -5.47893601	    -87.30281226	      0.07605356	      0.93749613	      2.18544953	      5.49842609	    -14.56595073	      3.04443705	     -1.06509061	      5.46084092	      0.85550638	    -10.08327556	    -12.82850853	     19.67583737	     -4.11236204	    -44.22594594	     41.92766534	    -25.25343305	   -124.20382057	    -11.89763994	    -22.62598858	     16.63026643
      2.21671100	     19.18825695	     -6.38597749	    -87.86118205	      0.07607033	      0.94288009	      2.21012671	      2.51543889	    -13.29883278	      3.04545009	     -0.28387164	      5.96391548	      0.76068873	     -9.54241783	     -9.83279879	     18.07310696	     -6.59934120	    -48.48667567	     42.45206155	    -25.21811732	   -123.88135984	    -12.57494754	    -21.38771014	     16.10087690
      2.23337800	     17.33906063	     -7.18617807	    -88.04799723	      0.07724314	      0.94846616	      2.23411754	     -0.72338698	    -11.45776521	      2.93184205	      1.01582853	      4.92166225	      0.56471470	     -5.64588368	     -7.51013194	     15.86029048	     -8.10980988	    -50.02285636	     44.43076202	    -25.40321466	   -124.07370258	    -13.30623677	    -19.35171188	     15.03168804
      2.25004500	     15.51075605	     -7.85666817	    -88.20435190	      0.07920835	      0.95347714	      2.25729630	     -3.66279533	     -9.68109052	      3.02671680	      2.21394105	      4.13626260	      0.22097985	     -2.75227766	     -5.27264578	     13.75465936	     -9.03847163	    -50.47007490	     46.60037279	    -25.39392787	   -124.17269546	    -13.97394808	    -17.27817628	     13.94025211
      2.26671200	     13.71201221	     -8.61630901	    -88.46946242	      0.08207787	      0.95807387	      2.27911081	     -6.24458662	     -8.02537166	      3.54074792	      2.86681947	      3.87078988	     -0.23175778	     -1.07646985	     -3.05853002	     11.85010520	     -9.61471817	    -50.38751842	     48.74125101	    -25.41124141	   -124.17620731	    -14.80262225	    -15.16612078	     12.81379313
      2.28337900	     11.88649560	     -9.18379894	    -88.59363081	      0.08567843	      0.96204014	      2.30034138	     -8.51679464	     -6.39229983	      4.30834550	      3.38566929	      3.35807435	     -0.99192861	      1.10124095	     -0.80318463	     10.06607902	     -9.65638683	    -49.24019287	     51.00762273	    -25.60153202	   -124.27873531	    -15.51437187	    -12.95686004	     11.67728203
      2.30004600	     10.10936545	     -9.60201358	    -88.88548100	      0.08916685	      0.96502045	      2.32197347	    -10.72972653	     -4.86301213	      5.36746889	      4.13082363	      2.64343564	     -1.90633986	      3.34740635	      1.22923468	      8.30937099	     -9.60943716	    -47.02067320	     52.56743342	    -25.46626152	   -123.77435851	    -15.96140063	    -10.89540981	     10.64995613
      2.31671300	      8.33587485	     -9.99418260	    -89.63900559	      0.09231174	      0.96710677	      2.34425327	    -13.14250271	     -3.49154368	      6.76133447	      5.34861210	      1.54841484	     -2.79344560	      5.86124182	      2.87519022	      6.45597787	     -9.83010996	    -43.67955977	     53.08909689	    -24.82588416	   -122.36039890	    -16.18405031	     -9.03592771	      9.66040854
      2.33338000	      6.52189502	    -10.26207530	    -90.58537088	      0.09526949	      0.96824813	      2.36695780	    -15.54698138	     -2.24449093	      8.67363114	      6.76814084	      0.47134824	     -4.04998112	      7.85255403	      4.36731561	      4.50761292	    -10.08154677	    -39.61874468	     52.71753853	    -23.44635554	   -119.57809388	    -16.20831073	     -7.23832068	      8.72446553
      2.35004700	      4.60882313	    -10.59342523	    -91.72261286	      0.09830013	      0.96863475	      2.38944589	    -17.96415167	     -1.00428286	     10.61817237	      8.05272390	     -0.53528167	     -5.12708587	      9.88429553	      5.49228076	      2.46246948	    -10.36461352	    -35.35770931	     51.23486707	    -21.23942031	   -114.91641084	    -16.32576636	     -5.41135727	      7.77209504
      2.36671400	      2.75258405	    -10.91321007	    -92.87959493	      0.10149603	      0.96815688	      2.41144088	    -20.27060308	      0.12663973	     12.30538832	      9.09086277	     -1.29267800	     -5.84639863	     11.75735349	      6.41209419	      0.43759446	    -10.38211495	    -31.29887678	     48.14206306	    -17.88373337	   -107.06189940	    -16.49699214	     -3.69976604	      6.68903572
      2.38338100	      1.08154496	    -11.10463836	    -94.13061672	      0.10470075	      0.96682117	      2.43311851	    -22.40962440	      0.99743877	     13.67174952	     10.01544911	     -1.71459890	     -6.10562436	     13.19342937	      7.25407403	     -1.51230003	    -10.16748200	    -27.55975711	     43.33623274	    -13.11438119	    -94.70576068	    -16.60225788	     -2.24486739	      5.68161304
      2.40004800	      1.32699806	    -11.11920037	    -95.09541781	      0.10745914	      0.96597255	      2.45396697	    -24.21119400	      0.18630217	     13.06967306	     10.81331517	     -0.82225647	     -4.78811667	     12.91117692	      8.59277050	     -1.67282064	     -9.35336971	    -27.54648693	     29.21298021	      0.42881684	    -49.80374654	    -16.72182180	     -2.83596012	      5.27895455
      2.41671500	     -0.47707918	    -11.28335279	    -95.85297773	      0.11134044	      0.96349680	      2.47579046	    -26.12400439	      1.33772107	     14.03789613	     11.11026129	     -0.64522244	     -4.90125096	     14.34585023	      8.51742913	     -3.79181704	     -8.17168262	    -22.56565606	     17.01402290	      3.99602734	    -24.99761955	    -17.05130239	     -1.15948358	      4.24559398
      2.43338200	     -3.34668331	    -11.25830269	    -96.93636928	      0.11608217	      0.95952650	      2.49792615	    -27.82749793	      3.40933584	     15.40658327	     10.99917208	     -0.17648344	     -4.68940185	     15.58263758	      7.86901256	     -6.93258665	     -7.24262346	    -15.57032350	      9.80588198	      4.22509629	    -15.13479537	    -17.27480385	      1.60866767	      2.92613122
      2.45004900	     -6.18751195	    -11.13355199	    -97.93840174	      0.12039388	      0.95535870	      2.52120262	    -29.46406772	      5.39718337	     17.17319167	     10.64800745	      0.37407202	     -4.93071446	     16.53510831	      7.20137316	    -10.16690023	     -6.93348125	     -9.17587963	      4.26344919	      4.58967791	     -7.87272105	    -17.48043093	      4.31931408	      1.81256268
      2.46671600	     -8.99094836	    -10.83507475	    -98.94016347	      0.12382022	      0.95091005	      2.54571655	    -30.99841891	      7.32236997	     19.44455345	     10.09593536	      0.84399496	     -5.79504179	     17.58159124	      6.36558769	    -13.44125784	     -7.82255310	     -3.17891047	     -0.07709196	      6.27362452	     -1.23454178	    -17.60405442	      6.93886725	      1.00410290
      2.48338300	    -11.58244803	    -10.66896409	    -99.98027603	      0.12620330	      0.94675916	      2.57134459	    -32.66326091	      8.94730779	     22.21243631	      9.28748520	      1.21338213	     -7.23675156	     18.78231239	      5.17828455	    -16.17709507	    -10.55578140	      2.22070821	     -3.18512757	      9.82610772	      4.63636979	    -17.93694818	      9.23302649	      0.73021518
